{"title":"Dirty Grandpa 2016 HDRip XVID AC3 HQ Hive-CM8","uid":14334977,"size":1559005263,"categoryP":"video","categoryS":"movies","magnet":"?xt=urn:btih:b5b01c9c80e80b2b397e8479635f3f5c12ed9ed8&amp;dn=+Dirty+Grandpa+2016+HDRip+XVID+AC3+HQ+Hive-CM8&amp;tr=udp%3A%2F%2Ftracker.leechers-paradise.org%3A6969&amp;tr=udp%3A%2F%2Fzer0day.ch%3A1337&amp;tr=udp%3A%2F%2Fopen.demonii.com%3A1337&amp;tr=udp%3A%2F%2Ftracker.coppersurfer.tk%3A6969&amp;tr=udp%3A%2F%2Fexodus.desync.com%3A6969","seeders":5,"leechers":3,"uploader":"makintos13","files":3,"time":1460700243,"description":"Dirty Grandpa 2016 HDRip XVID AC3 HQ Hive-CM8\r\n\r\nScreens:\r\n  \nhttps://imgmak.com/TTr\r\n  \nhttps://imgmak.com/TTB\r\n  \nhttps://imgmak.com/TTI\r\n  \nhttps://imgmak.com/TTq\r\n  \nhttps://imgmak.com/TTt\r\n  \nhttps://imgmak.com/TT2\r\n\r\n\r\nThx Hive\r\n\r\nCM8 Doing It Right The First Time\r\n\r\nSources:\r\n\r\nVideo: Russian Itunes 1080p\r\nAudio: Exclusive Direct Line\r\nthx\r\n\r\nNotes:\r\nwhat a HOT Release, first from me, enjoy folks\r\n\r\nEncode:\r\nWaited for the 1080p, fixed rgb,brightness,contrast and added sharpness\r\n\r\nLine Audio was nice, lipsynced to my video\r\n\r\ngot very nice and will do me till retail in a month\r\nenjoy\r\n\r\nVideo: 720x304 @bitrate 1800 2pass\r\nAudio: Line AC3 2.0 Stereo\r\nSample: yes included  \nhttp://www.imdb.com/title/tt1860213/\r\n\r\nGeneral\r\nComplete name: Dirty.Grandpa.2016.HDRip.XVID.AC3.HQ.Hive-CM8.avi\r\nFormat: AVI\r\nFormat/Info: Audio Video Interleave\r\nFile size: 1.44 GiB\r\nDuration: 1h 40mn\r\nOverall bit rate: 2 057 Kbps\r\nWriting application: Nandub v1.0rc2\r\nWriting library: Nandub build 1853/release\r\n\r\nVideo\r\nID: 0\r\nFormat: MPEG-4 Visual\r\nFormat profile: Advanced   \r\nFormat settings, BVOP: 2\r\nFormat settings, QPel: Yes\r\nFormat settings, GMC: No warppoints\r\nFormat settings, Matrix: Default (H.263)\r\nMuxing mode: Packed bitstream\r\nCodec ID: XVID\r\nCodec ID/Hint: XviD\r\nDuration: 1h 40mn\r\nBit rate: 1 791 Kbps\r\nWidth: 720 pixels\r\nHeight: 304 pixels\r\nDisplay aspect ratio: 2.35:1\r\nFrame rate: 25.000 fps\r\nColor space: YUV\r\nChroma subsampling: 4:2:0\r\nBit depth: 8 bits\r\nScan type: Progressive\r\nCompression mode: Lossy\r\nBits/(Pixel*Frame): 0.327\r\nStream size: 1.25 GiB (87%)\r\nWriting library: XviD 1.2.1 (UTC 2008-12-04)\r\n\r\nAudio\r\nID: 1\r\nFormat: AC-3\r\nFormat/Info: Audio Coding 3\r\nMode extension: CM (complete main)\r\nFormat settings, Endianness: Big\r\nCodec ID: 2000\r\nDuration: 1h 40mn\r\nBit rate mode: Constant\r\nBit rate: 256 Kbps\r\nChannel(s): 2 channels\r\nChannel positions: Front: L R\r\nSampling rate: 48.0 KHz\r\nBit depth: 16 bits\r\nCompression mode: Lossy\r\nDelay relative to video: 70ms\r\nStream size: 183 MiB (12%)\r\nAlignment: Split accross interleaves\r\nInterleave, duration: 40 ms (1.00 video frame)\r\nInterleave, preload duration: 500 ms","torrent":{"xt":"urn:btih:b5b01c9c80e80b2b397e8479635f3f5c12ed9ed8","amp;dn":"+Dirty+Grandpa+2016+HDRip+XVID+AC3+HQ+Hive-CM8","amp;tr":["udp%3A%2F%2Ftracker.leechers-paradise.org%3A6969","udp%3A%2F%2Fzer0day.ch%3A1337","udp%3A%2F%2Fopen.demonii.com%3A1337","udp%3A%2F%2Ftracker.coppersurfer.tk%3A6969","udp%3A%2F%2Fexodus.desync.com%3A6969"],"infoHash":"b5b01c9c80e80b2b397e8479635f3f5c12ed9ed8","infoHashBuffer":{"type":"Buffer","data":[181,176,28,156,128,232,11,43,57,126,132,121,99,95,63,92,18,237,158,216]},"announce":[],"urlList":[]}}